<svg id="Camada_1" data-name="Camada 1" xmlns="http://www.w3.org/2000/svg" xmlns:xlink="https://www.w3.org/1999/xlink" viewBox="0 0 90.71 90.71"><defs><style>.cls-1{fill:none;}.cls-2{font-size:92.94px;font-family:ETHIQUERegular, ETHIQUE;}.cls-2,.cls-5{fill:#0c241f;}.cls-3{font-family:ATClassicRoman, Classic Roman;}.cls-4{clip-path:url(#clip-path);}</style><clipPath id="clip-path"><path class="cls-1" d="M36.14,63.43H50.63l.12-34.52L75.23,41.39s3.36,12.24,2.64,17.28-2.28,14.16-8.4,16.92S54,80.75,51.59,80s-.69-2.47-.69-2.47H35.78l-2,7.83,9.36,2.34L69,84.49,86.63,73.55l3-22.68L83.39,31.55l-17.88-8.4-15.6-2-17.64.24,1.92,10.44Z"/></clipPath></defs><title>23</title><text class="cls-2" transform="translate(-23.29 70.44)"> <tspan class="cls-3" x="21.93" y="0">C</tspan></text><g class="cls-4"><path class="cls-5" d="M45.72,22.1q12.09,0,20.17,2.84a35.51,35.51,0,0,1,13,7.48A26.25,26.25,0,0,1,85.78,43a37.5,37.5,0,0,1,2,12.26A31.74,31.74,0,0,1,86,66.62a25,25,0,0,1-4.83,8,24.27,24.27,0,0,1-7,5.3A39.61,39.61,0,0,1,66,83a51.93,51.93,0,0,1-8.41,1.44q-4.18.38-7.81.38H35.59a12.36,12.36,0,0,0,2.61-2.23,7.67,7.67,0,0,0,1.34-2.33,9.82,9.82,0,0,0,.51-2.65c.06-1,.1-2,.1-3.2V32.51c0-1.17,0-2.23-.1-3.16a10.46,10.46,0,0,0-.51-2.65,7.62,7.62,0,0,0-1.34-2.37,12.36,12.36,0,0,0-2.61-2.23Zm0,47.59c0,2.23.05,4.13.14,5.71a9.63,9.63,0,0,0,.89,3.81,4.5,4.5,0,0,0,2.37,2.14,12.2,12.2,0,0,0,4.69.7,36.63,36.63,0,0,0,10.92-1.58,24,24,0,0,0,8.78-4.83,22.77,22.77,0,0,0,5.86-8.18A28.9,28.9,0,0,0,81.5,55.93q0-9.75-3.34-15.8a25.94,25.94,0,0,0-8.6-9.43A32.4,32.4,0,0,0,58,26.1a65.71,65.71,0,0,0-12.27-1.21Z"/></g></svg>