<svg id="Camada_1" data-name="Camada 1" xmlns="http://www.w3.org/2000/svg" viewBox="0 0 340.16 167.97"><defs><style>.cls-1{fill:#fff;}.cls-2{fill:none;stroke:#fff;stroke-miterlimit:10;stroke-width:0.5px;}</style></defs><title>logo_footer</title><path class="cls-1" d="M24.68,46.39c-.63.19-1.19.37-1.69.54a15.3,15.3,0,0,1-1.61.43,17.25,17.25,0,0,1-1.89.29c-.69.07-1.56.11-2.59.11a13.11,13.11,0,0,1-4.59-.86,13.36,13.36,0,0,1-4.12-2.49,12.77,12.77,0,0,1-3-3.92,11.48,11.48,0,0,1-1.13-5.15,12.08,12.08,0,0,1,1.29-5.72,12.54,12.54,0,0,1,3.33-4.05,14.16,14.16,0,0,1,4.52-2.4,15.44,15.44,0,0,1,6.88-.66q1.09.12,2.07.3l1.73.34c.5.11.84.19,1,.24v4.17c-.19-.26-.45-.6-.79-1a6,6,0,0,0-1.37-1.24,7.86,7.86,0,0,0-2.16-1.05,10.43,10.43,0,0,0-3.24-.43,11.56,11.56,0,0,0-4.35.79,9.82,9.82,0,0,0-5.65,5.76,13.24,13.24,0,0,0,0,9.2,11.52,11.52,0,0,0,2.34,3.73,10.88,10.88,0,0,0,3.56,2.48,11.16,11.16,0,0,0,4.52.9,9.2,9.2,0,0,0,2.9-.4,8.66,8.66,0,0,0,2.05-1,7.19,7.19,0,0,0,1.41-1.17l1-1Z"/><path class="cls-1" d="M54.88,44a10.56,10.56,0,0,0,.7,1.58,4.36,4.36,0,0,0,.57.83,2.32,2.32,0,0,0,.58.45l.74.38H52.36c.19-.22.36-.43.52-.63a1.56,1.56,0,0,0,.23-.92,1.65,1.65,0,0,0-.09-.54c-.06-.17-.12-.35-.2-.54l-3.24-8.15H41.3l-3.2,7.63a8.9,8.9,0,0,0-.34,1,3,3,0,0,0-.16.83c0,.43.07.71.23.84l.59.49H34.36c.43-.31.76-.58,1-.79a5.16,5.16,0,0,0,.63-.69,5.53,5.53,0,0,0,.51-.84c.15-.33.35-.76.59-1.32l9-21.2ZM45.55,26.34l-3.78,9h7.42Z"/><path class="cls-1" d="M76.94,43.19v1.56a4.1,4.1,0,0,0,.14.92,2.49,2.49,0,0,0,.35.69l.63.86H73.68l.63-.86a2.22,2.22,0,0,0,.34-.69,3.61,3.61,0,0,0,.15-.92V24H69.6a7.18,7.18,0,0,0-1.39.11,3,3,0,0,0-1,.36,4.52,4.52,0,0,0-.86.65l-1.08,1,1.87-3.71.39.18a2.21,2.21,0,0,0,.51.18,6,6,0,0,0,.72.13c.33,0,.67.05,1,.05H83.37a10.63,10.63,0,0,0,1.69-.16c.65-.11,1.26-.24,1.84-.38l-2,4-.18-1.16a1.62,1.62,0,0,0-.27-.73,1.07,1.07,0,0,0-.61-.38A5,5,0,0,0,82.68,24H76.92Z"/><path class="cls-1" d="M115.28,44a11.75,11.75,0,0,0,.71,1.58,4.36,4.36,0,0,0,.57.83,2.32,2.32,0,0,0,.58.45l.74.38h-5.12c.2-.22.37-.43.53-.63a1.56,1.56,0,0,0,.23-.92,1.65,1.65,0,0,0-.09-.54l-.2-.54L110,36.48h-8.31l-3.2,7.63a9.06,9.06,0,0,0-.34,1,3.4,3.4,0,0,0-.17.83,1.1,1.1,0,0,0,.24.84c.15.14.35.3.59.49H94.73c.35-.25.68-.51,1-.79a5.16,5.16,0,0,0,.63-.69,5.53,5.53,0,0,0,.51-.84c.15-.33.35-.76.59-1.32l9-21.2ZM106,26.36l-3.78,9h7.42Z"/><path class="cls-1" d="M130.8,43.19v1.56a4.77,4.77,0,0,0,.15.92,2.22,2.22,0,0,0,.34.69l.63.86h-4.46l.63-.86a2.47,2.47,0,0,0,.34-.69,4.1,4.1,0,0,0,.14-.92V25.44a4.1,4.1,0,0,0-.14-.92,2.47,2.47,0,0,0-.34-.69l-.63-.86h5.11a20.93,20.93,0,0,1,3.35.27,10.09,10.09,0,0,1,2.88.92,5.33,5.33,0,0,1,2,1.74,4.82,4.82,0,0,1,.76,2.79,6.23,6.23,0,0,1-.4,2.34,5.09,5.09,0,0,1-1.1,1.75A5.76,5.76,0,0,1,138.41,34a10.16,10.16,0,0,1-2,.72c1.23,1.72,2.37,3.29,3.42,4.69a35,35,0,0,0,3,3.62,16.38,16.38,0,0,0,2.58,2.34,4,4,0,0,0,2.19.83h.65a1.94,1.94,0,0,0,.58-.12c.19,0,.29.07.29.21s-.2.35-.6.61a3.44,3.44,0,0,1-1.89.4,4.73,4.73,0,0,1-2.27-.61A11.5,11.5,0,0,1,142.12,45,22.16,22.16,0,0,1,140,42.7c-.7-.86-1.38-1.73-2-2.63s-1.32-1.78-2-2.65-1.21-1.63-1.76-2.3H130.8ZM132.74,34a10.94,10.94,0,0,0,2.61-.29,6.21,6.21,0,0,0,2.13-.92,4.51,4.51,0,0,0,1.44-1.6,5,5,0,0,0,.52-2.34,4.91,4.91,0,0,0-.38-1.89,4.2,4.2,0,0,0-1.15-1.55,5.38,5.38,0,0,0-2-1A9.93,9.93,0,0,0,133,24H130.8V34Z"/><path class="cls-1" d="M160.75,43.19v1.56a4.1,4.1,0,0,0,.14.92,2.47,2.47,0,0,0,.34.69l.63.86H157.4l.63-.86a2.47,2.47,0,0,0,.34-.69,4.1,4.1,0,0,0,.14-.92V25.44a4.1,4.1,0,0,0-.14-.92,2.47,2.47,0,0,0-.34-.69L157.4,23h4.46l-.63.86a2.47,2.47,0,0,0-.34.69,4.1,4.1,0,0,0-.14.92V43.19Z"/><path class="cls-1" d="M193.22,47.76l-17.28-20V44.05a10.47,10.47,0,0,0,.06,1.37,3.15,3.15,0,0,0,.16.81,1.49,1.49,0,0,0,.29.5l.43.49h-3.13l.43-.49a1.68,1.68,0,0,0,.29-.5,4.47,4.47,0,0,0,.16-.81c0-.34.05-.79.05-1.37V26.34c-.26-.36-.53-.69-.79-1a6.79,6.79,0,0,0-.92-.86,10.5,10.5,0,0,0-1.17-.8c-.43-.25-.93-.5-1.51-.77h4.39L192,43V26.09a10.74,10.74,0,0,0-.05-1.37,4.47,4.47,0,0,0-.16-.81,1.49,1.49,0,0,0-.29-.5l-.43-.49h3.13l-.43.49a1.49,1.49,0,0,0-.29.5,3.15,3.15,0,0,0-.16.81,10.47,10.47,0,0,0-.06,1.37Z"/><path class="cls-1" d="M224.79,44a11.75,11.75,0,0,0,.71,1.58,4.36,4.36,0,0,0,.57.83,2.32,2.32,0,0,0,.58.45l.74.38h-5.12c.2-.22.37-.43.53-.63a1.56,1.56,0,0,0,.23-.92,1.65,1.65,0,0,0-.09-.54l-.2-.54-3.24-8.13h-8.28L208,44.11a9.06,9.06,0,0,0-.34,1,3.4,3.4,0,0,0-.17.83,1.1,1.1,0,0,0,.24.84c.15.14.35.3.59.49h-4.07c.35-.25.68-.51,1-.79a5.16,5.16,0,0,0,.63-.69,5.53,5.53,0,0,0,.51-.84c.15-.33.35-.76.59-1.32l9-21.2Zm-9.32-17.64-3.78,9h7.42Z"/><path class="cls-1" d="M7.86,72.92A23.82,23.82,0,0,1,15.68,74a13.74,13.74,0,0,1,5,2.9,10.17,10.17,0,0,1,2.7,4.1,14.74,14.74,0,0,1,.79,4.75,12.39,12.39,0,0,1-.7,4.39,9.57,9.57,0,0,1-1.88,3.12,9.48,9.48,0,0,1-2.7,2,15.66,15.66,0,0,1-3.16,1.19,22.44,22.44,0,0,1-3.26.56c-1.08.09-2.09.14-3,.14H4a4.84,4.84,0,0,0,1-.86,2.93,2.93,0,0,0,.53-.9,4.21,4.21,0,0,0,.19-1V75.78a4.21,4.21,0,0,0-.19-1A2.91,2.91,0,0,0,5,73.86,4.84,4.84,0,0,0,4,73Zm0,18.43v2.22A3.56,3.56,0,0,0,8.26,95a1.76,1.76,0,0,0,.91.83A4.68,4.68,0,0,0,11,96.1a14.1,14.1,0,0,0,4.23-.61,9.3,9.3,0,0,0,3.4-1.87,8.84,8.84,0,0,0,2.27-3.17A11.28,11.28,0,0,0,21.68,86a12.59,12.59,0,0,0-1.3-6.12,10,10,0,0,0-3.33-3.65,12.28,12.28,0,0,0-4.48-1.78A24.81,24.81,0,0,0,7.86,74Z"/><path class="cls-1" d="M37.68,96.32a1.45,1.45,0,0,1-.41,1,1.35,1.35,0,0,1-1,.43,1.32,1.32,0,0,1-1-.43,1.38,1.38,0,0,1-.42-1,1.43,1.43,0,0,1,1.4-1.44h0a1.35,1.35,0,0,1,1,.43A1.41,1.41,0,0,1,37.68,96.32Z"/><path class="cls-1" d="M87.24,84.69a14.12,14.12,0,0,1-.92,5.1,12.62,12.62,0,0,1-2.55,4.15,12.08,12.08,0,0,1-8.91,3.82,11,11,0,0,1-4.72-1,11.56,11.56,0,0,1-3.65-2.66,12.09,12.09,0,0,1-2.38-3.91,13.14,13.14,0,0,1-.85-4.72,14.28,14.28,0,0,1,.92-5.13,12.81,12.81,0,0,1,2.56-4.15,12,12,0,0,1,8.94-3.78,10.83,10.83,0,0,1,4.68,1A11.35,11.35,0,0,1,84,76a12.06,12.06,0,0,1,2.37,3.91A13,13,0,0,1,87.24,84.69ZM75.54,96.32a10.89,10.89,0,0,0,3.71-.65,8.33,8.33,0,0,0,3.09-2,9.74,9.74,0,0,0,2.13-3.38,14.58,14.58,0,0,0,0-9.54,11.26,11.26,0,0,0-2.2-3.67A10.1,10.1,0,0,0,79,74.68a9.69,9.69,0,0,0-4-.86,10.88,10.88,0,0,0-3.7.65,8.36,8.36,0,0,0-3.1,2,9.56,9.56,0,0,0-2.12,3.4,13.63,13.63,0,0,0-.8,4.86,12.89,12.89,0,0,0,.81,4.64A11.68,11.68,0,0,0,68.25,93a9.81,9.81,0,0,0,3.26,2.42A9.52,9.52,0,0,0,75.54,96.32Z"/><path class="cls-1" d="M101.53,92.22a13.27,13.27,0,0,0,.09,1.78,2.29,2.29,0,0,0,.47,1.2,2.26,2.26,0,0,0,1.13.71,7.53,7.53,0,0,0,2.06.23,11.34,11.34,0,0,0,3.47-.45A8.19,8.19,0,0,0,111,94.61a7.12,7.12,0,0,0,1.37-1.26,5.39,5.39,0,0,1,.9-.95l-1.73,4.82H97.61a5.11,5.11,0,0,0,1-.86,3.11,3.11,0,0,0,.52-.9,4.79,4.79,0,0,0,.2-1v-19a4.77,4.77,0,0,0-.15-.92,2.22,2.22,0,0,0-.34-.69c-.16-.21-.36-.5-.59-.86h4.43l-.63.86a2.52,2.52,0,0,0-.36.69,3.23,3.23,0,0,0-.16.92V92.22Z"/><path class="cls-1" d="M125.4,93.19v1.56a4.1,4.1,0,0,0,.14.92,2.22,2.22,0,0,0,.34.69l.63.86h-4.46l.63-.86a2.47,2.47,0,0,0,.34-.69,4.1,4.1,0,0,0,.14-.92V75.44a4.1,4.1,0,0,0-.14-.92,2.47,2.47,0,0,0-.34-.69l-.63-.86h4.46l-.63.86a2.22,2.22,0,0,0-.34.69,4.1,4.1,0,0,0-.14.92V93.19Z"/><path class="cls-1" d="M147.14,97.76l-8.24-21.6a14.71,14.71,0,0,0-.7-1.57,4.34,4.34,0,0,0-.58-.84,2.46,2.46,0,0,0-.57-.45l-.74-.38h5.11c-.19.22-.37.43-.52.63a1.5,1.5,0,0,0-.24.92,1.65,1.65,0,0,0,.09.54l.2.54,6.73,18.25,7-17.75a8.9,8.9,0,0,0,.34-1,3,3,0,0,0,.16-.83,1.11,1.11,0,0,0-.23-.84l-.6-.49h4.07a11.71,11.71,0,0,0-1,.79,4.25,4.25,0,0,0-.65.69,5.53,5.53,0,0,0-.51.84c-.15.33-.34.76-.55,1.32Z"/><path class="cls-1" d="M181,97.22h-13.9a4.84,4.84,0,0,0,1-.86,3.11,3.11,0,0,0,.52-.9,3.78,3.78,0,0,0,.2-1V75.78a3.78,3.78,0,0,0-.2-1,2.88,2.88,0,0,0-.52-.92,4.84,4.84,0,0,0-1-.86h12.93v3.3l-.69-1.09a2,2,0,0,0-.79-.72,4.14,4.14,0,0,0-1.33-.38,19.85,19.85,0,0,0-2.31-.11h-3.88v9.18h6a6.61,6.61,0,0,0,.89,0,2,2,0,0,0,.64-.16,2.26,2.26,0,0,0,.58-.34q.27-.21.63-.54v3.24l-.59-.54a1.69,1.69,0,0,0-.51-.32,2.47,2.47,0,0,0-.66-.17,9.73,9.73,0,0,0-1.08,0H171v8a13.27,13.27,0,0,0,.09,1.78,2.36,2.36,0,0,0,.46,1.2,2.28,2.28,0,0,0,1.14.71,7.46,7.46,0,0,0,2.05.23,11.23,11.23,0,0,0,3.46-.45,8.07,8.07,0,0,0,2.23-1.08,7.12,7.12,0,0,0,1.37-1.26,5.39,5.39,0,0,1,.9-1Z"/><path class="cls-1" d="M195.68,93.19v1.56a4.1,4.1,0,0,0,.14.92,2.47,2.47,0,0,0,.34.69l.63.86h-4.46l.63-.86a2.47,2.47,0,0,0,.34-.69,4.1,4.1,0,0,0,.14-.92V75.44a4.1,4.1,0,0,0-.14-.92,2.47,2.47,0,0,0-.34-.69l-.63-.86h4.46l-.63.86a2.47,2.47,0,0,0-.34.69,4.1,4.1,0,0,0-.14.92V93.19Z"/><path class="cls-1" d="M211.47,93.19v1.56a4.1,4.1,0,0,0,.14.92,2.49,2.49,0,0,0,.35.69l.63.86h-4.47l.63-.86a2.22,2.22,0,0,0,.34-.69,3.61,3.61,0,0,0,.15-.92V75.44a3.61,3.61,0,0,0-.15-.92,2.22,2.22,0,0,0-.34-.69l-.63-.86h5.11a20.93,20.93,0,0,1,3.35.27,10.09,10.09,0,0,1,2.88.92,5.41,5.41,0,0,1,2,1.74,4.83,4.83,0,0,1,.75,2.79,6.47,6.47,0,0,1-.33,2.31,5.34,5.34,0,0,1-1.1,1.75A5.81,5.81,0,0,1,219.12,84a9.56,9.56,0,0,1-2,.72c1.22,1.72,2.36,3.29,3.42,4.69a36.29,36.29,0,0,0,3,3.62,15.84,15.84,0,0,0,2.57,2.34,4,4,0,0,0,2.2.83H229a1.87,1.87,0,0,0,.57-.12c.2,0,.29.07.29.21s-.2.35-.59.61a3.44,3.44,0,0,1-1.89.4,4.52,4.52,0,0,1-2.27-.61A11.45,11.45,0,0,1,222.8,95a22.26,22.26,0,0,1-2.15-2.3c-.69-.86-1.38-1.73-2.05-2.63s-1.32-1.78-1.94-2.65-1.21-1.63-1.77-2.3h-3.42Zm2-9.18a11.47,11.47,0,0,0,2.61-.29,6.08,6.08,0,0,0,2.12-.92,4.51,4.51,0,0,0,1.44-1.6,4.86,4.86,0,0,0,.52-2.34,4.72,4.72,0,0,0-.37-1.89,4.22,4.22,0,0,0-1.16-1.55,5.38,5.38,0,0,0-2-1,9.84,9.84,0,0,0-2.95-.42h-2.2V84Z"/><path class="cls-1" d="M257.05,94a11.69,11.69,0,0,0,.7,1.58,4,4,0,0,0,.58.83,2.46,2.46,0,0,0,.57.45l.74.38h-5.11c.19-.22.37-.43.52-.63a1.5,1.5,0,0,0,.24-.92,1.65,1.65,0,0,0-.09-.54l-.2-.54-3.24-8.13h-8.28l-3.21,7.63a8.9,8.9,0,0,0-.34,1,3,3,0,0,0-.16.83,1.11,1.11,0,0,0,.23.84l.6.49h-4.07a11.71,11.71,0,0,0,1-.79,5.16,5.16,0,0,0,.63-.69,5,5,0,0,0,.5-.84c.16-.33.36-.76.6-1.32l9-21.2Zm-9.32-17.64-3.78,9h7.41Z"/><path class="cls-1" d="M208.76,135.81a3.76,3.76,0,0,0,.27.62,2.27,2.27,0,0,0,.22.32.76.76,0,0,0,.23.17l.28.15h-2l.2-.24a.57.57,0,0,0,.09-.36.74.74,0,0,0,0-.21l-.08-.21-1.29-3.16h-3.2l-1.25,3a1.9,1.9,0,0,1-.13.38,1.65,1.65,0,0,0-.06.32.43.43,0,0,0,.09.33,2.11,2.11,0,0,0,.23.19h-1.58c.16-.12.29-.22.39-.31a2,2,0,0,0,.24-.26,3.62,3.62,0,0,0,.2-.33c.06-.13.14-.3.23-.51l3.5-8.25ZM205.13,129l-1.45,3.46h2.88Z"/><path class="cls-1" d="M214.75,127.62a9.24,9.24,0,0,1,3,.43,5.29,5.29,0,0,1,1.95,1.12,3.88,3.88,0,0,1,1,1.6,5.53,5.53,0,0,1,.31,1.85,5,5,0,0,1-.27,1.71,3.73,3.73,0,0,1-.73,1.21,3.53,3.53,0,0,1-1,.8,6.08,6.08,0,0,1-1.23.46,9.12,9.12,0,0,1-1.27.22h-3.32a1.41,1.41,0,0,0,.39-.34,1.08,1.08,0,0,0,.21-.34,1.76,1.76,0,0,0,.07-.4v-7.28a1.76,1.76,0,0,0-.07-.4,1.13,1.13,0,0,0-.21-.35,1.59,1.59,0,0,0-.39-.34Zm0,7.17v.86a1.4,1.4,0,0,0,.13.57.72.72,0,0,0,.36.33,1.91,1.91,0,0,0,.71.1,5.66,5.66,0,0,0,1.64-.24,3.7,3.7,0,0,0,1.32-.72,3.42,3.42,0,0,0,.89-1.24,4.46,4.46,0,0,0,.32-1.73,4.81,4.81,0,0,0-.51-2.38,3.75,3.75,0,0,0-1.29-1.42,5,5,0,0,0-1.74-.7,9.59,9.59,0,0,0-1.85-.18Z"/><path class="cls-1" d="M228.68,137.28l-3.21-8.4a6.65,6.65,0,0,0-.27-.61,1.9,1.9,0,0,0-.22-.33.76.76,0,0,0-.23-.17l-.28-.15h2l-.2.25a.54.54,0,0,0-.09.35.38.38,0,0,0,0,.21,1.72,1.72,0,0,0,.07.21l2.62,7.1,2.72-6.9a1.9,1.9,0,0,1,.13-.38,1.65,1.65,0,0,0,.06-.32.43.43,0,0,0-.09-.33l-.23-.19H233c-.17.12-.3.23-.4.31a3.07,3.07,0,0,0-.25.26c-.07.11-.13.22-.19.33s-.16.34-.22.51Z"/><path class="cls-1" d="M245.93,132.2a5.49,5.49,0,0,1-.36,2,5.11,5.11,0,0,1-1,1.62,4.66,4.66,0,0,1-3.46,1.48,4.29,4.29,0,0,1-1.83-.38,4.61,4.61,0,0,1-1.43-1,4.73,4.73,0,0,1-.92-1.52,5.16,5.16,0,0,1-.33-1.83,5.49,5.49,0,0,1,.36-2,5.07,5.07,0,0,1,1-1.61,4.75,4.75,0,0,1,1.53-1.09,4.67,4.67,0,0,1,1.95-.4,4.23,4.23,0,0,1,1.82.39,4.16,4.16,0,0,1,1.42,1,4.75,4.75,0,0,1,.93,1.52A5.37,5.37,0,0,1,245.93,132.2Zm-4.55,4.52a4.16,4.16,0,0,0,1.44-.25,3.28,3.28,0,0,0,1.2-.78,4,4,0,0,0,.83-1.31,5.32,5.32,0,0,0,.31-1.89,4.92,4.92,0,0,0-.32-1.82,4.41,4.41,0,0,0-.85-1.43,3.9,3.9,0,0,0-1.27-.93,3.55,3.55,0,0,0-1.57-.34,4.4,4.4,0,0,0-1.44.25,3.28,3.28,0,0,0-1.2.78,3.88,3.88,0,0,0-.83,1.32,5.1,5.1,0,0,0-.31,1.89,5,5,0,0,0,.31,1.79,4.41,4.41,0,0,0,.85,1.43,3.89,3.89,0,0,0,1.27.94A3.72,3.72,0,0,0,241.38,136.72Z"/><path class="cls-1" d="M258.2,136.29a1.67,1.67,0,0,0-.54.15c-.22.1-.48.22-.78.34a9.12,9.12,0,0,1-1,.35,3.77,3.77,0,0,1-1.06.15,5.21,5.21,0,0,1-1.52-.26,4.86,4.86,0,0,1-1.56-.86,4.72,4.72,0,0,1-1.2-1.53,5.6,5.6,0,0,1-.1-4.29,4.88,4.88,0,0,1,5.3-2.86,3.44,3.44,0,0,1,.8.16l.71.16a2.6,2.6,0,0,0,.56.07l-.5,1.63c-.06-.15-.12-.32-.2-.51a1.67,1.67,0,0,0-.35-.55,1.91,1.91,0,0,0-.69-.43,3.38,3.38,0,0,0-1.18-.18,3.57,3.57,0,0,0-1.58.34,3.72,3.72,0,0,0-1.23.92,4.18,4.18,0,0,0-.79,1.39,5,5,0,0,0-.28,1.72,6.09,6.09,0,0,0,.27,1.85,4.55,4.55,0,0,0,.75,1.47,3.41,3.41,0,0,0,1.17,1,3.21,3.21,0,0,0,1.52.36,3.71,3.71,0,0,0,.94-.1,4.07,4.07,0,0,0,.74-.26,4.37,4.37,0,0,0,.55-.32l.37-.27v-1.26a1.91,1.91,0,0,0-.06-.33.75.75,0,0,0-.13-.25l-.24-.3h1.59l-.17.3a.75.75,0,0,0-.09.25,1.82,1.82,0,0,0,0,.33v.54Z"/><path class="cls-1" d="M270.22,135.81a3.76,3.76,0,0,0,.27.62,2.27,2.27,0,0,0,.22.32.76.76,0,0,0,.23.17l.28.15h-2l.2-.24a.57.57,0,0,0,.09-.36.38.38,0,0,0,0-.21,1.72,1.72,0,0,0-.07-.21l-1.26-3.16H265l-1.25,3a2.43,2.43,0,0,0-.13.38,1.65,1.65,0,0,0-.06.32.43.43,0,0,0,.09.33,2.11,2.11,0,0,0,.23.19h-1.58c.16-.12.29-.22.39-.31a2,2,0,0,0,.24-.26,3.62,3.62,0,0,0,.2-.33c.06-.13.14-.3.23-.51l3.5-8.25ZM266.59,129l-1.47,3.51H268Z"/><path class="cls-1" d="M276.21,127.62a9.24,9.24,0,0,1,3,.43,5.29,5.29,0,0,1,2,1.12,3.88,3.88,0,0,1,1,1.6,5.53,5.53,0,0,1,.31,1.85,5,5,0,0,1-.27,1.71,4.16,4.16,0,0,1-.73,1.21,3.71,3.71,0,0,1-1.05.8,6.08,6.08,0,0,1-1.23.46,9.12,9.12,0,0,1-1.27.22h-3.24a1.41,1.41,0,0,0,.39-.34,1.08,1.08,0,0,0,.21-.34,1.76,1.76,0,0,0,.07-.4v-7.28a1.76,1.76,0,0,0-.07-.4,1.13,1.13,0,0,0-.21-.35,1.59,1.59,0,0,0-.39-.34Zm0,7.17v.86a1.4,1.4,0,0,0,.13.57.68.68,0,0,0,.36.33,1.91,1.91,0,0,0,.71.1,5.66,5.66,0,0,0,1.64-.24,3.78,3.78,0,0,0,1.32-.72,3.42,3.42,0,0,0,.89-1.24,4.46,4.46,0,0,0,.32-1.73,4.81,4.81,0,0,0-.51-2.38,3.75,3.75,0,0,0-1.29-1.42,5,5,0,0,0-1.75-.7,9.49,9.49,0,0,0-1.84-.18Z"/><path class="cls-1" d="M294,135.81a4.91,4.91,0,0,0,.28.62,2.27,2.27,0,0,0,.22.32.72.72,0,0,0,.22.17l.29.15h-2c.08-.08.15-.17.21-.24a.57.57,0,0,0,.09-.36.38.38,0,0,0,0-.21.86.86,0,0,0-.07-.21L292,132.89h-3.27l-1.25,3a2.43,2.43,0,0,0-.13.38,1.14,1.14,0,0,0-.07.32.43.43,0,0,0,.09.33l.24.19H286l.4-.31a2,2,0,0,0,.24-.26,3.62,3.62,0,0,0,.2-.33c.06-.13.13-.3.23-.51l3.5-8.25ZM290.35,129l-1.47,3.51h2.88Z"/><line class="cls-2" x1="190.5" y1="138.5" x2="4.44" y2="138.5"/><rect class="cls-1" x="285.64" y="81.75" width="7.44" height="7.44" transform="translate(24.31 229.64) rotate(-45)"/></svg>