<svg id="Camada_1" data-name="Camada 1" xmlns="http://www.w3.org/2000/svg" viewBox="0 0 368.48 167.97"><defs><style>.cls-1{fill:#1d4024;}.cls-2{fill:none;stroke:#1d4024;stroke-miterlimit:10;stroke-width:0.5px;}</style></defs><title>logo</title><path class="cls-1" d="M53,46.39c-.63.19-1.19.37-1.69.54a14.52,14.52,0,0,1-1.61.43,17.22,17.22,0,0,1-1.89.29c-.69.07-1.56.11-2.59.11a13.08,13.08,0,0,1-4.59-.86,13.36,13.36,0,0,1-4.12-2.49,12.75,12.75,0,0,1-3-3.92,11.45,11.45,0,0,1-1.13-5.15,12.1,12.1,0,0,1,1.29-5.72A12.61,12.61,0,0,1,37,25.57a14,14,0,0,1,4.52-2.4,15.46,15.46,0,0,1,6.88-.66q1.1.12,2.07.3l1.73.34c.5.11.84.19,1,.24v4.17c-.19-.26-.45-.6-.79-1a6.24,6.24,0,0,0-1.37-1.24,8.05,8.05,0,0,0-2.16-1.05,10.29,10.29,0,0,0-3.24-.43,11.57,11.57,0,0,0-4.35.79,9.83,9.83,0,0,0-5.65,5.76,13.24,13.24,0,0,0,0,9.2,11.46,11.46,0,0,0,2.34,3.73,10.81,10.81,0,0,0,3.56,2.48,11.22,11.22,0,0,0,4.52.9,9.15,9.15,0,0,0,2.9-.4,8.49,8.49,0,0,0,2.05-1,7.37,7.37,0,0,0,1.41-1.17l1-1Z"/><path class="cls-1" d="M83.2,44a10.61,10.61,0,0,0,.7,1.58,4.2,4.2,0,0,0,.57.83,2.39,2.39,0,0,0,.58.45l.74.38H80.68c.19-.22.36-.43.52-.63a1.54,1.54,0,0,0,.23-.92,1.61,1.61,0,0,0-.09-.54c-.06-.17-.12-.35-.2-.54L77.9,36.46H69.62l-3.2,7.63c-.12.29-.23.61-.34,1a3.07,3.07,0,0,0-.16.83c0,.43.07.71.23.84l.59.49H62.68c.43-.31.76-.58,1-.79a5,5,0,0,0,.63-.69,5.49,5.49,0,0,0,.51-.84c.15-.33.35-.76.59-1.32l9-21.2ZM73.87,26.34l-3.78,9h7.42Z"/><path class="cls-1" d="M105.26,43.19c0,.67,0,1.19,0,1.56a4.06,4.06,0,0,0,.14.92,2.5,2.5,0,0,0,.35.69l.63.86H102l.63-.86a2.22,2.22,0,0,0,.34-.69,4,4,0,0,0,.15-.92q0-.55,0-1.56V24H97.92a7.28,7.28,0,0,0-1.39.11,3.11,3.11,0,0,0-1,.36,4.52,4.52,0,0,0-.86.65l-1.08,1,1.87-3.71.39.18a3,3,0,0,0,.51.18,6.4,6.4,0,0,0,.72.13,10,10,0,0,0,1,.05h13.61a10.23,10.23,0,0,0,1.69-.16c.65-.11,1.26-.24,1.84-.38l-2,4-.18-1.16a1.69,1.69,0,0,0-.27-.73,1.06,1.06,0,0,0-.61-.38A5.44,5.44,0,0,0,111,24h-5.76Z"/><path class="cls-1" d="M143.6,44a11.59,11.59,0,0,0,.71,1.58,4.2,4.2,0,0,0,.57.83,2.22,2.22,0,0,0,.58.45l.74.38h-5.12c.2-.22.37-.43.53-.63a1.54,1.54,0,0,0,.23-.92,1.61,1.61,0,0,0-.09-.54l-.2-.54-3.24-8.13H130l-3.2,7.63a8.37,8.37,0,0,0-.34,1,3.17,3.17,0,0,0-.17.83,1.08,1.08,0,0,0,.24.84c.15.14.35.3.59.49h-4.07a12.14,12.14,0,0,0,1-.79,5,5,0,0,0,.63-.69,5.49,5.49,0,0,0,.51-.84c.15-.33.35-.76.59-1.32l9-21.2Zm-9.32-17.64-3.78,9h7.42Z"/><path class="cls-1" d="M159.12,43.19q0,1,0,1.56a4.63,4.63,0,0,0,.15.92,2.22,2.22,0,0,0,.34.69l.63.86h-4.46l.63-.86a2.46,2.46,0,0,0,.34-.69,4.06,4.06,0,0,0,.14-.92c0-.37,0-.89,0-1.56V27c0-.67,0-1.19,0-1.56a4.06,4.06,0,0,0-.14-.92,2.46,2.46,0,0,0-.34-.69l-.63-.86h5.11a20.38,20.38,0,0,1,3.35.27,9.84,9.84,0,0,1,2.88.92,5.33,5.33,0,0,1,2,1.74,4.8,4.8,0,0,1,.76,2.79,6.23,6.23,0,0,1-.4,2.34,5.16,5.16,0,0,1-1.1,1.75,5.92,5.92,0,0,1-1.65,1.21,9.66,9.66,0,0,1-2,.72c1.23,1.72,2.37,3.29,3.42,4.69s2,2.61,3,3.62a16.31,16.31,0,0,0,2.58,2.34,3.93,3.93,0,0,0,2.19.83l.65,0a2,2,0,0,0,.58-.12c.19,0,.29.07.29.21s-.2.35-.6.61a3.41,3.41,0,0,1-1.89.4,4.66,4.66,0,0,1-2.27-.61A11.35,11.35,0,0,1,170.44,45a22.69,22.69,0,0,1-2.14-2.3c-.7-.86-1.38-1.73-2.05-2.63s-1.32-1.78-1.95-2.65-1.21-1.63-1.76-2.3h-3.42ZM161.06,34a11.28,11.28,0,0,0,2.61-.29,6.23,6.23,0,0,0,2.13-.92,4.51,4.51,0,0,0,1.44-1.6,5,5,0,0,0,.52-2.34,4.8,4.8,0,0,0-.38-1.89,4.3,4.3,0,0,0-1.15-1.55,5.56,5.56,0,0,0-2-1,10,10,0,0,0-2.92-.38h-2.19V34Z"/><path class="cls-1" d="M189.07,43.19c0,.67,0,1.19,0,1.56a4.06,4.06,0,0,0,.14.92,2.46,2.46,0,0,0,.34.69l.63.86h-4.46l.63-.86a2.46,2.46,0,0,0,.34-.69,4.06,4.06,0,0,0,.14-.92c0-.37,0-.89,0-1.56V27c0-.67,0-1.19,0-1.56a4.06,4.06,0,0,0-.14-.92,2.46,2.46,0,0,0-.34-.69l-.63-.86h4.46l-.63.86a2.46,2.46,0,0,0-.34.69,4.06,4.06,0,0,0-.14.92c0,.37,0,.89,0,1.56Z"/><path class="cls-1" d="M221.54,47.76l-17.28-20V44.05a12.22,12.22,0,0,0,.06,1.37,3.39,3.39,0,0,0,.16.81,1.43,1.43,0,0,0,.29.5l.43.49h-3.13l.43-.49a1.61,1.61,0,0,0,.29-.5,4,4,0,0,0,.16-.81c0-.34.05-.79.05-1.37V26.34c-.26-.36-.53-.69-.79-1a6.35,6.35,0,0,0-.92-.86,10.86,10.86,0,0,0-1.17-.8c-.43-.25-.93-.5-1.51-.77H203L220.28,43V26.09c0-.58,0-1-.05-1.37a4,4,0,0,0-.16-.81,1.43,1.43,0,0,0-.29-.5l-.43-.49h3.13l-.43.49a1.43,1.43,0,0,0-.29.5,3.39,3.39,0,0,0-.16.81,12.22,12.22,0,0,0-.06,1.37Z"/><path class="cls-1" d="M253.11,44a11.59,11.59,0,0,0,.71,1.58,4.2,4.2,0,0,0,.57.83,2.22,2.22,0,0,0,.58.45l.74.38h-5.12c.2-.22.37-.43.53-.63a1.54,1.54,0,0,0,.23-.92,1.61,1.61,0,0,0-.09-.54l-.2-.54-3.24-8.13h-8.28l-3.2,7.63a8.37,8.37,0,0,0-.34,1,3.17,3.17,0,0,0-.17.83,1.08,1.08,0,0,0,.24.84c.15.14.35.3.59.49h-4.07a12.14,12.14,0,0,0,1-.79,5,5,0,0,0,.63-.69,5.49,5.49,0,0,0,.51-.84c.15-.33.35-.76.59-1.32l9-21.2Zm-9.32-17.64-3.78,9h7.42Z"/><path class="cls-1" d="M36.18,72.92A23.91,23.91,0,0,1,44,74a13.73,13.73,0,0,1,5,2.9A10.2,10.2,0,0,1,51.7,81a14.74,14.74,0,0,1,.79,4.75,12.44,12.44,0,0,1-.7,4.39,9.66,9.66,0,0,1-1.88,3.12,9.47,9.47,0,0,1-2.7,2,15.29,15.29,0,0,1-3.16,1.19,22.24,22.24,0,0,1-3.26.56c-1.08.09-2.09.14-3,.14h-5.5a5,5,0,0,0,1-.86,3,3,0,0,0,.53-.9,4.1,4.1,0,0,0,.19-1c0-.37,0-.79,0-1.24V77c0-.45,0-.86,0-1.22a4.36,4.36,0,0,0-.19-1,3,3,0,0,0-.53-.92,5,5,0,0,0-1-.86Zm0,18.43c0,.87,0,1.6,0,2.22A3.61,3.61,0,0,0,36.58,95a1.77,1.77,0,0,0,.91.83,4.81,4.81,0,0,0,1.82.27,14.09,14.09,0,0,0,4.23-.61,9.3,9.3,0,0,0,3.4-1.87,8.79,8.79,0,0,0,2.27-3.17A11.18,11.18,0,0,0,50,86a12.52,12.52,0,0,0-1.3-6.12,10,10,0,0,0-3.33-3.65,12.35,12.35,0,0,0-4.48-1.78A25.39,25.39,0,0,0,36.18,74Z"/><path class="cls-1" d="M66,96.32a1.45,1.45,0,0,1-.41,1,1.37,1.37,0,0,1-1,.43,1.33,1.33,0,0,1-1-.43,1.42,1.42,0,0,1-.42-1,1.42,1.42,0,0,1,1.44-1.44,1.37,1.37,0,0,1,1,.43A1.45,1.45,0,0,1,66,96.32Z"/><path class="cls-1" d="M115.56,84.69a14.2,14.2,0,0,1-.92,5.1,12.69,12.69,0,0,1-2.55,4.15,12.07,12.07,0,0,1-8.91,3.82,11.05,11.05,0,0,1-4.72-1,11.46,11.46,0,0,1-3.65-2.66,12,12,0,0,1-2.38-3.91,13.3,13.3,0,0,1-.85-4.72,14.28,14.28,0,0,1,.92-5.13,12.71,12.71,0,0,1,2.56-4.15A11.87,11.87,0,0,1,99,73.41a12.06,12.06,0,0,1,5-1,10.9,10.9,0,0,1,4.68,1A11.5,11.5,0,0,1,112.34,76a12,12,0,0,1,2.37,3.91A13.16,13.16,0,0,1,115.56,84.69Zm-11.7,11.63a10.73,10.73,0,0,0,3.71-.65,8.28,8.28,0,0,0,3.09-2,9.77,9.77,0,0,0,2.13-3.38,14.62,14.62,0,0,0,0-9.54,11.29,11.29,0,0,0-2.2-3.67,10.1,10.1,0,0,0-3.25-2.4,9.64,9.64,0,0,0-4-.86,10.67,10.67,0,0,0-3.7.65,8.32,8.32,0,0,0-3.1,2,9.6,9.6,0,0,0-2.12,3.4,13.45,13.45,0,0,0-.8,4.86,12.88,12.88,0,0,0,.81,4.64A11.68,11.68,0,0,0,96.57,93a9.81,9.81,0,0,0,3.26,2.42A9.59,9.59,0,0,0,103.86,96.32Z"/><path class="cls-1" d="M129.85,92.22a15,15,0,0,0,.09,1.78,2.32,2.32,0,0,0,.47,1.2,2.25,2.25,0,0,0,1.13.71,7.5,7.5,0,0,0,2.06.23,11.42,11.42,0,0,0,3.47-.45,8.13,8.13,0,0,0,2.25-1.08,7.41,7.41,0,0,0,1.37-1.26,5.61,5.61,0,0,1,.9-.95l-1.73,4.82H125.93a5.36,5.36,0,0,0,1-.86,3.18,3.18,0,0,0,.52-.9,4.59,4.59,0,0,0,.2-1c0-.37,0-.79,0-1.24V77q0-1,0-1.56a4.63,4.63,0,0,0-.15-.92,2.22,2.22,0,0,0-.34-.69c-.16-.21-.36-.5-.59-.86H131l-.63.86a2.53,2.53,0,0,0-.36.69,3.11,3.11,0,0,0-.16.92c0,.37,0,.89,0,1.56Z"/><path class="cls-1" d="M153.72,93.19c0,.67,0,1.19,0,1.56a4.06,4.06,0,0,0,.14.92,2.22,2.22,0,0,0,.34.69l.63.86h-4.46l.63-.86a2.46,2.46,0,0,0,.34-.69,4.06,4.06,0,0,0,.14-.92c0-.37,0-.89,0-1.56V77c0-.67,0-1.19,0-1.56a4.06,4.06,0,0,0-.14-.92,2.46,2.46,0,0,0-.34-.69l-.63-.86h4.46l-.63.86a2.22,2.22,0,0,0-.34.69,4.06,4.06,0,0,0-.14.92c0,.37,0,.89,0,1.56Z"/><path class="cls-1" d="M175.46,97.76l-8.24-21.6a15.33,15.33,0,0,0-.7-1.57,4.43,4.43,0,0,0-.58-.84,2.35,2.35,0,0,0-.57-.45l-.74-.38h5.11c-.19.22-.37.43-.52.63a1.47,1.47,0,0,0-.24.92,1.61,1.61,0,0,0,.09.54l.2.54L176,93.8l7-17.75c.12-.29.23-.61.34-1a3.07,3.07,0,0,0,.16-.83,1.12,1.12,0,0,0-.23-.84l-.6-.49h4.07c-.43.31-.77.58-1,.79a4.17,4.17,0,0,0-.65.69,5.49,5.49,0,0,0-.51.84c-.15.33-.34.76-.55,1.32Z"/><path class="cls-1" d="M209.34,97.22h-13.9a5.06,5.06,0,0,0,1-.86,3,3,0,0,0,.52-.9,3.69,3.69,0,0,0,.2-1c0-.37,0-.79,0-1.24V77c0-.45,0-.86,0-1.22a3.92,3.92,0,0,0-.2-1,2.93,2.93,0,0,0-.52-.92,5.06,5.06,0,0,0-1-.86h12.93V76.3l-.69-1.09a2,2,0,0,0-.79-.72,3.9,3.9,0,0,0-1.33-.38,19.25,19.25,0,0,0-2.31-.11h-3.88v9.18h6a7.31,7.31,0,0,0,.89,0,2,2,0,0,0,.64-.16,2.26,2.26,0,0,0,.58-.34q.27-.21.63-.54v3.24l-.59-.54a1.74,1.74,0,0,0-.51-.32,2.63,2.63,0,0,0-.66-.17,10,10,0,0,0-1.08,0h-5.94v8a15,15,0,0,0,.09,1.78,2.31,2.31,0,0,0,.46,1.2,2.28,2.28,0,0,0,1.14.71,7.42,7.42,0,0,0,2.05.23,11.3,11.3,0,0,0,3.46-.45,8.13,8.13,0,0,0,2.23-1.08,7.41,7.41,0,0,0,1.37-1.26,5.61,5.61,0,0,1,.9-.95Z"/><path class="cls-1" d="M224,93.19c0,.67,0,1.19,0,1.56a4.06,4.06,0,0,0,.14.92,2.46,2.46,0,0,0,.34.69l.63.86h-4.46l.63-.86a2.46,2.46,0,0,0,.34-.69,4.06,4.06,0,0,0,.14-.92c0-.37,0-.89,0-1.56V77c0-.67,0-1.19,0-1.56a4.06,4.06,0,0,0-.14-.92,2.46,2.46,0,0,0-.34-.69l-.63-.86h4.46l-.63.86a2.46,2.46,0,0,0-.34.69,4.06,4.06,0,0,0-.14.92c0,.37,0,.89,0,1.56Z"/><path class="cls-1" d="M239.79,93.19c0,.67,0,1.19,0,1.56a4.06,4.06,0,0,0,.14.92,2.5,2.5,0,0,0,.35.69l.63.86h-4.47l.63-.86a2.22,2.22,0,0,0,.34-.69,4,4,0,0,0,.15-.92q0-.56,0-1.56V77q0-1,0-1.56a4,4,0,0,0-.15-.92,2.22,2.22,0,0,0-.34-.69l-.63-.86h5.11a20.29,20.29,0,0,1,3.35.27,9.84,9.84,0,0,1,2.88.92,5.43,5.43,0,0,1,2,1.74,4.88,4.88,0,0,1,.75,2.79A6.45,6.45,0,0,1,250.2,81a5.31,5.31,0,0,1-1.1,1.75,6,6,0,0,1-1.66,1.21,9.57,9.57,0,0,1-2,.72c1.22,1.72,2.36,3.29,3.42,4.69s2,2.61,3,3.62a15.87,15.87,0,0,0,2.57,2.34,4,4,0,0,0,2.2.83l.65,0a1.94,1.94,0,0,0,.57-.12c.2,0,.29.07.29.21s-.2.35-.59.61a3.45,3.45,0,0,1-1.89.4,4.63,4.63,0,0,1-2.27-.61A11.35,11.35,0,0,1,251.12,95a22.75,22.75,0,0,1-2.15-2.3c-.69-.86-1.38-1.73-2.05-2.63s-1.32-1.78-1.94-2.65-1.21-1.63-1.77-2.3h-3.42Zm2-9.18a11.4,11.4,0,0,0,2.61-.29,6.26,6.26,0,0,0,2.12-.92,4.51,4.51,0,0,0,1.44-1.6,4.87,4.87,0,0,0,.52-2.34,4.79,4.79,0,0,0-.37-1.89,4.33,4.33,0,0,0-1.16-1.55,5.51,5.51,0,0,0-2-1A10,10,0,0,0,242,74h-2.2V84Z"/><path class="cls-1" d="M285.37,94a11.78,11.78,0,0,0,.7,1.58,4.18,4.18,0,0,0,.58.83,2.35,2.35,0,0,0,.57.45l.74.38h-5.11c.19-.22.37-.43.52-.63a1.47,1.47,0,0,0,.24-.92,1.61,1.61,0,0,0-.09-.54l-.2-.54-3.24-8.13H271.8l-3.21,7.63c-.12.29-.23.61-.34,1a3.07,3.07,0,0,0-.16.83,1.12,1.12,0,0,0,.23.84l.6.49h-4.07c.43-.31.77-.58,1-.79a5,5,0,0,0,.63-.69,4.78,4.78,0,0,0,.5-.84c.16-.33.36-.76.6-1.32l9-21.2Zm-9.32-17.64-3.78,9h7.41Z"/><path class="cls-1" d="M237.08,135.81a4.46,4.46,0,0,0,.27.62,1.93,1.93,0,0,0,.22.32.91.91,0,0,0,.23.17l.28.15h-2l.2-.24a.6.6,0,0,0,.09-.36.66.66,0,0,0,0-.21l-.08-.21L235,132.89H231.8l-1.25,3c0,.11-.09.24-.13.38a1.3,1.3,0,0,0-.06.32.43.43,0,0,0,.09.33,2.92,2.92,0,0,0,.23.19H229.1c.16-.12.29-.22.39-.31a2,2,0,0,0,.24-.26,2.63,2.63,0,0,0,.2-.33c.06-.13.14-.3.23-.51l3.5-8.25ZM233.45,129,232,132.46h2.88Z"/><path class="cls-1" d="M243.07,127.62a9.19,9.19,0,0,1,3,.43,5.38,5.38,0,0,1,1.95,1.12,3.92,3.92,0,0,1,1,1.6,5.53,5.53,0,0,1,.31,1.85,4.87,4.87,0,0,1-.27,1.71,3.83,3.83,0,0,1-.73,1.21,3.57,3.57,0,0,1-1,.8,6.31,6.31,0,0,1-1.23.46,9.65,9.65,0,0,1-1.27.22c-.42,0-.81,0-1.18,0h-2.14a1.49,1.49,0,0,0,.39-.34,1,1,0,0,0,.21-.34,1.76,1.76,0,0,0,.07-.4c0-.15,0-.31,0-.49v-6.31c0-.18,0-.34,0-.48a1.76,1.76,0,0,0-.07-.4,1,1,0,0,0-.21-.35,1.69,1.69,0,0,0-.39-.34Zm0,7.17c0,.33,0,.62,0,.86a1.41,1.41,0,0,0,.13.57.72.72,0,0,0,.36.33,1.88,1.88,0,0,0,.71.1,5.47,5.47,0,0,0,1.64-.24,3.67,3.67,0,0,0,1.32-.72,3.43,3.43,0,0,0,.89-1.24,4.38,4.38,0,0,0,.32-1.73,4.83,4.83,0,0,0-.51-2.38,3.78,3.78,0,0,0-1.29-1.42,4.9,4.9,0,0,0-1.74-.7,10.07,10.07,0,0,0-1.85-.18Z"/><path class="cls-1" d="M257,137.28l-3.21-8.4a5.57,5.57,0,0,0-.27-.61,2.08,2.08,0,0,0-.22-.33.91.91,0,0,0-.23-.17l-.28-.15h2l-.2.25a.54.54,0,0,0-.09.35.46.46,0,0,0,0,.21,1.72,1.72,0,0,0,.07.21l2.62,7.1,2.72-6.9c0-.11.09-.24.13-.38a1.3,1.3,0,0,0,.06-.32.43.43,0,0,0-.09-.33l-.23-.19h1.58c-.17.12-.3.23-.4.31a2,2,0,0,0-.25.26,2.59,2.59,0,0,0-.19.33,4.52,4.52,0,0,0-.22.51Z"/><path class="cls-1" d="M274.25,132.2a5.44,5.44,0,0,1-.36,2,5,5,0,0,1-1,1.62,4.67,4.67,0,0,1-3.46,1.48,4.37,4.37,0,0,1-1.83-.38,4.54,4.54,0,0,1-1.43-1,4.76,4.76,0,0,1-.92-1.52,5.12,5.12,0,0,1-.33-1.83,5.5,5.5,0,0,1,.36-2,5,5,0,0,1,1-1.61,4.8,4.8,0,0,1,1.53-1.09,4.63,4.63,0,0,1,1.95-.4,4.22,4.22,0,0,1,1.82.39,4.32,4.32,0,0,1,1.42,1,4.71,4.71,0,0,1,.93,1.52A5.19,5.19,0,0,1,274.25,132.2Zm-4.55,4.52a4.12,4.12,0,0,0,1.44-.25,3.2,3.2,0,0,0,1.2-.78,3.87,3.87,0,0,0,.83-1.31,5.34,5.34,0,0,0,.31-1.89,5.08,5.08,0,0,0-.32-1.82,4.31,4.31,0,0,0-.85-1.43,3.86,3.86,0,0,0-1.27-.93,3.63,3.63,0,0,0-1.57-.34,4.36,4.36,0,0,0-1.44.25,3.2,3.2,0,0,0-1.2.78,3.82,3.82,0,0,0-.83,1.32,5.13,5.13,0,0,0-.31,1.89A5,5,0,0,0,266,134a4.52,4.52,0,0,0,.85,1.43,3.93,3.93,0,0,0,1.27.94A3.74,3.74,0,0,0,269.7,136.72Z"/><path class="cls-1" d="M286.52,136.29a1.48,1.48,0,0,0-.54.15c-.22.1-.48.22-.78.34a8.84,8.84,0,0,1-1,.35,3.77,3.77,0,0,1-1.06.15,5.21,5.21,0,0,1-1.52-.26,4.9,4.9,0,0,1-1.56-.86,4.65,4.65,0,0,1-1.2-1.53,5.58,5.58,0,0,1-.1-4.29,4.79,4.79,0,0,1,4.46-2.93,4.76,4.76,0,0,1,.84.07c.28,0,.55.1.8.16l.71.16a2.58,2.58,0,0,0,.56.07l-.5,1.63c-.06-.15-.12-.32-.2-.51a1.56,1.56,0,0,0-.35-.55,1.85,1.85,0,0,0-.69-.43,3.18,3.18,0,0,0-1.18-.18,3.55,3.55,0,0,0-1.58.34,3.62,3.62,0,0,0-1.23.92,4.2,4.2,0,0,0-.79,1.39,5,5,0,0,0-.28,1.72,6.13,6.13,0,0,0,.27,1.85,4.43,4.43,0,0,0,.75,1.47,3.53,3.53,0,0,0,1.17,1,3.19,3.19,0,0,0,1.52.36,3.87,3.87,0,0,0,.94-.1,4,4,0,0,0,.74-.26,4.46,4.46,0,0,0,.55-.32l.37-.27v-.72c0-.23,0-.41,0-.54a1.39,1.39,0,0,0-.06-.33.67.67,0,0,0-.13-.25l-.24-.3h1.59l-.17.3a.75.75,0,0,0-.09.25,2.48,2.48,0,0,0,0,.33c0,.13,0,.31,0,.54Z"/><path class="cls-1" d="M298.54,135.81a4.46,4.46,0,0,0,.27.62,1.93,1.93,0,0,0,.22.32.91.91,0,0,0,.23.17l.28.15h-2l.2-.24a.6.6,0,0,0,.09-.36.46.46,0,0,0,0-.21,1.72,1.72,0,0,0-.07-.21l-1.26-3.16h-3.22l-1.25,3a2.8,2.8,0,0,0-.13.38,1.3,1.3,0,0,0-.06.32.43.43,0,0,0,.09.33,2.92,2.92,0,0,0,.23.19h-1.58c.16-.12.29-.22.39-.31a2,2,0,0,0,.24-.26,2.63,2.63,0,0,0,.2-.33c.06-.13.14-.3.23-.51l3.5-8.25ZM294.91,129l-1.47,3.51h2.88Z"/><path class="cls-1" d="M304.53,127.62a9.19,9.19,0,0,1,3,.43,5.38,5.38,0,0,1,1.95,1.12,3.92,3.92,0,0,1,1,1.6,5.53,5.53,0,0,1,.31,1.85,4.87,4.87,0,0,1-.27,1.71,4,4,0,0,1-.73,1.21,3.85,3.85,0,0,1-1.05.8,6.31,6.31,0,0,1-1.23.46,9.65,9.65,0,0,1-1.27.22c-.42,0-.81,0-1.18,0H303a1.49,1.49,0,0,0,.39-.34,1.12,1.12,0,0,0,.21-.34,1.76,1.76,0,0,0,.07-.4c0-.15,0-.31,0-.49v-6.31c0-.18,0-.34,0-.48a1.76,1.76,0,0,0-.07-.4,1.16,1.16,0,0,0-.21-.35,1.69,1.69,0,0,0-.39-.34Zm0,7.17c0,.33,0,.62,0,.86a1.41,1.41,0,0,0,.13.57.69.69,0,0,0,.36.33,1.88,1.88,0,0,0,.71.1,5.47,5.47,0,0,0,1.64-.24,3.67,3.67,0,0,0,1.32-.72,3.43,3.43,0,0,0,.89-1.24,4.38,4.38,0,0,0,.32-1.73,4.83,4.83,0,0,0-.51-2.38,3.78,3.78,0,0,0-1.29-1.42,4.88,4.88,0,0,0-1.75-.7,9.88,9.88,0,0,0-1.84-.18Z"/><path class="cls-1" d="M322.29,135.81a5.78,5.78,0,0,0,.28.62,1.93,1.93,0,0,0,.22.32.87.87,0,0,0,.22.17l.29.15h-2c.08-.08.15-.17.21-.24a.6.6,0,0,0,.09-.36.46.46,0,0,0,0-.21c0-.07-.05-.14-.07-.21l-1.26-3.16H317l-1.25,3a2.8,2.8,0,0,0-.13.38,1,1,0,0,0-.07.32.43.43,0,0,0,.09.33l.24.19h-1.59a4.4,4.4,0,0,0,.4-.31,2,2,0,0,0,.24-.26,2.63,2.63,0,0,0,.2-.33c.06-.13.13-.3.23-.51l3.5-8.25ZM318.67,129l-1.47,3.51h2.88Z"/><line class="cls-2" x1="218.82" y1="138.5" x2="32.76" y2="138.5"/><rect class="cls-1" x="313.96" y="81.75" width="7.44" height="7.44" transform="translate(153.48 -199.6) rotate(45)"/></svg>